<svg xmlns="http://www.w3.org/2000/svg" viewBox="0 0 296 296" width="296" height="296">
  <rect width="296" height="296" fill="white"/>
  <!-- QR Code for https://apps.apple.com/app/puffguard -->
  <path d="M32,32h56v56h-56zM40,40v40h40v-40zM48,48h24v24h-24zM96,32h8v8h-8zM112,32h8v16h-8zM128,32h8v8h-8zM144,32h16v8h-8v8h8v8h-16zM168,32h8v16h8v-16h48v8h-8v8h-8v-8h-8v8h8v8h16v8h-8v8h8v8h8v8h-16v-8h-8v8h-8v-8h-8v-8h-8v-8h8v-8h-8v-8h8v-8h8v8h8v-8h-8v-8zM240,32h8v8h-8zM256,32h8v8h-8zM208,40h8v8h-8zM248,40h8v8h-8zM96,48h8v8h8v-8h8v16h-16v8h-8zM240,48h16v8h-16zM104,56h8v8h-8zM128,56h8v8h-8zM144,56h8v8h-8zM168,56h24v8h-8v8h-8v-8h-8zM200,56h8v16h16v8h8v8h-8v8h-8v-8h-8v8h-8v-24h8v-8h-8zM256,56h8v24h-8v8h-8v-8h-8v-8h16zM32,64h8v8h-8zM48,64h24v8h8v8h-16v8h8v8h-8v8h8v8h-24v-8h16v-8h-8v-8h-8v-8h8v-8h-8zM112,64h8v8h-8zM136,64h8v8h-8zM248,64h8v8h-8zM96,72h8v8h-8zM128,72h8v16h8v-8h16v8h-8v8h-8v8h8v8h-16v-8h-8v-8h8v-8h-8zM176,72h8v8h-8zM240,72h8v16h-8zM40,80h8v8h-8zM88,80h8v8h-8zM168,80h8v8h8v16h-8v8h8v16h-8v8h-8v16h8v8h-8v8h-16v-8h-8v-8h16v-16h-8v-8h8v-8h8v-8h8v-8h-8v-8zM192,80h8v8h-8zM32,88h56v56h-56zM40,96v40h40v-40zM48,104h24v24h-24zM96,88h8v16h16v8h8v8h-8v8h-8v-16h-8v-8h-8zM224,88h8v8h8v8h-16zM248,88h16v8h-16zM256,96h8v8h-8zM104,104h8v8h8v8h8v-8h8v16h8v8h-16v-8h-8v8h-8v-8h-8v-8h8zM192,104h8v8h8v8h8v-16h8v8h8v-8h8v8h8v8h-8v8h-24v8h8v8h-8v8h-8v-16h-8v-8h-8v-8h8zM248,104h16v16h-8v8h-8zM232,112h8v8h-8zM176,128h8v8h8v8h-16v8h8v8h-8v8h8v8h-8v8h-8v-16h-8v-8h8v-8h8v-8h-8v-8h8zM200,128h8v8h-8zM240,128h8v8h-8zM256,128h8v16h-8v8h-8v-8h-8v-8h16zM96,136h24v8h8v8h-8v16h8v8h-8v8h-16v-8h8v-8h-8v-8h-8v-16h8v-8h-8zM192,136h8v24h-8zM208,136h16v8h8v8h-16v-8h-8zM248,144h8v8h-8zM32,152h8v16h8v-8h8v16h16v8h-8v8h-8v-8h-8v8h-8v-8h-8zM128,152h8v8h8v8h16v8h8v8h-8v8h8v8h-32v-8h8v-8h-8v-8h-8v-8h8zM80,160h8v16h8v8h-16zM232,160h8v8h-8zM256,160h8v24h-8v8h-8v-24h8zM208,168h16v8h-8v8h8v8h-16v-8h-8v-8h8zM240,168h8v24h-8zM144,176h8v8h-8zM96,184h8v8h-8zM184,184h8v16h8v-8h8v8h8v-8h8v16h-8v8h8v8h8v16h-8v8h-8v-8h-8v8h-8v-16h8v-8h-16v-8h8v-8h-8zM104,192h8v16h8v8h-24v-8h8zM128,192h8v8h-8zM152,192h16v16h-8v-8h-8zM248,192h8v16h-8zM32,200h8v8h-8zM48,200h40v8h-16v8h-8v-8h-8v8h8v8h8v16h-8v8h8v8h8v8h-8v8h-8v-8h-8v-16h8v-8h-16v-8h8v-8h-8v-8h8zM136,200h8v8h-8zM96,208h8v8h-8zM120,208h8v16h16v-16h8v24h8v8h-8v8h-8v-8h-8v8h-8v-8h-8v-8h8v-8h-8zM168,208h8v8h8v8h-8v8h-8v8h-8v-8h-8v-8h16zM208,208h56v56h-56zM216,216v40h40v-40zM224,224h24v24h-24zM256,208h8v8h-8zM88,216h8v8h-8zM176,216h16v8h8v8h-16v-8h-8zM96,224h8v16h-8zM104,232h8v8h-8zM192,240h8v8h-8zM32,248h8v8h8v8h-16zM48,248h8v8h-8zM168,248h8v8h8v8h-16zM64,256h8v8h-8zM88,256h16v8h-16zM112,256h8v8h-8zM128,256h8v8h-8zM144,256h8v8h-8zM160,256h8v8h-8zM184,256h16v8h-16zM200,256h8v8h-8zM256,256h8v8h-8z" fill="black"/>
</svg>